<svg width="80" height="80" viewBox="0 0 80 80" fill="none" xmlns="http://www.w3.org/2000/svg">
<path d="M16.6666 60V72.5533L21.7166 69.5233L37.59 60H53.3333C57.01 60 60 57.01 60 53.3333V26.6667C60 22.99 57.01 20 53.3333 20H13.3333C9.65663 20 6.66663 22.99 6.66663 26.6667V53.3333C6.66663 57.01 9.65663 60 13.3333 60H16.6666ZM13.3333 26.6667H53.3333V53.3333H35.7433L23.3333 60.78V53.3333H13.3333V26.6667Z" fill="#9DD458"/>
<path d="M66.6667 6.66663H26.6667C22.99 6.66663 20 9.65663 20 13.3333H60C63.6767 13.3333 66.6667 16.3233 66.6667 20V46.6666C70.3433 46.6666 73.3333 43.6766 73.3333 40V13.3333C73.3333 9.65663 70.3433 6.66663 66.6667 6.66663Z" fill="#9DD458"/>
</svg>
